<?xml version="1.0" encoding="utf-8"?>
<!-- Generator: Adobe Illustrator 27.2.0, SVG Export Plug-In . SVG Version: 6.00 Build 0)  -->
<svg version="1.1" id="Слой_1" xmlns="http://www.w3.org/2000/svg" xmlns:xlink="http://www.w3.org/1999/xlink" x="0px" y="0px"
	 viewBox="0 0 24 30" style="enable-background:new 0 0 24 30;" xml:space="preserve">
<style type="text/css">
	.st0{fill-rule:evenodd;clip-rule:evenodd;fill:#FFFFFF;stroke:#FFFFFF;stroke-width:0.25;stroke-miterlimit:10;}
</style>
<path class="st0" d="M8.6,8.8C8,8.8,7.5,9.1,7.3,9.7l-1,4c-0.2,0.8,0.4,1.6,1.2,1.6c0.5,0,1-0.3,1.2-0.9l0.5-1.6
	c0.1-0.3,0.4-0.5,0.7-0.5h4c0.3,0,0.6,0.2,0.7,0.5l0.5,1.6c0.2,0.5,0.6,0.9,1.2,0.9c0.8,0,1.4-0.8,1.2-1.6l-1-4
	c-0.1-0.6-0.6-0.9-1.2-0.9H8.6z M5.9,9.3c0.3-1.2,1.4-2.1,2.7-2.1h6.9c1.3,0,2.4,0.9,2.7,2.1l1,4c0.4,1.7-0.9,3.4-2.7,3.4
	c-1.2,0-2.2-0.8-2.6-1.9l-0.4-1.1h-2.9l-0.4,1.1c-0.4,1.1-1.4,1.9-2.6,1.9c-1.8,0-3.1-1.7-2.7-3.4L5.9,9.3z"/>
<path class="st0" d="M12,2.8c-5.1,0-9.2,4.1-9.2,9.2c0,5.1,4.1,9.2,9.2,9.2c5.1,0,9.2-4.1,9.2-9.2c0-0.6-0.1-1.3-0.2-1.9
	c-0.1-0.4,0.2-0.8,0.6-0.9c0.4-0.1,0.8,0.2,0.9,0.6c0.1,0.7,0.2,1.4,0.2,2.1c0,5.9-4.8,10.8-10.8,10.8C6.1,22.8,1.2,17.9,1.2,12
	C1.2,6.1,6.1,1.2,12,1.2c3.5,0,6.6,1.7,8.6,4.3c0.2,0.3,0.2,0.8-0.1,1.1c-0.3,0.2-0.8,0.2-1.1-0.1C17.7,4.2,15,2.8,12,2.8z"/>
<path class="st0" d="M9.7,4.3C9,5.3,8.4,6.8,8.1,8.6C8,9,7.6,9.3,7.2,9.2C6.8,9.2,6.5,8.8,6.6,8.4c0.4-2,1-3.7,1.9-5
	c0.9-1.3,2.1-2.1,3.5-2.1c1.4,0,2.6,0.9,3.5,2.1c0.9,1.3,1.6,3,1.9,5c0.1,0.4-0.2,0.8-0.6,0.9C16.4,9.3,16,9,15.9,8.6
	c-0.3-1.8-0.9-3.3-1.7-4.4c-0.7-1-1.5-1.5-2.3-1.5S10.5,3.2,9.7,4.3z M7.3,15.3c0.4-0.1,0.8,0.2,0.9,0.6c0.4,1.7,1,3.1,1.7,4
	c0.7,1,1.5,1.4,2.2,1.4c0.7,0,1.5-0.4,2.2-1.4c0.7-0.9,1.3-2.3,1.7-4c0.1-0.4,0.5-0.7,0.9-0.6c0.4,0.1,0.7,0.5,0.6,0.9
	c-0.4,1.8-1.1,3.4-1.9,4.6c-0.9,1.2-2,2-3.4,2c-1.4,0-2.5-0.8-3.4-2c-0.9-1.2-1.5-2.8-1.9-4.6C6.6,15.8,6.9,15.4,7.3,15.3z"/>
<path class="st0" d="M1.2,12c0-0.4,0.3-0.8,0.8-0.8h4c0.4,0,0.8,0.3,0.8,0.8S6.4,12.8,6,12.8H2C1.6,12.8,1.2,12.4,1.2,12z M17.2,12
	c0-0.4,0.3-0.8,0.8-0.8h4c0.4,0,0.8,0.3,0.8,0.8s-0.3,0.8-0.8,0.8h-4C17.6,12.8,17.2,12.4,17.2,12z"/>
<text transform="matrix(1 0 0 1 0 39)" style="font-family:'Arial-BoldMT'; font-size:5px;">Created by Kawalan Icon</text>
<text transform="matrix(1 0 0 1 0 44)" style="font-family:'Arial-BoldMT'; font-size:5px;">from the Noun Project</text>
</svg>
